<svg width="32" height="32" viewBox="0 0 32 32" fill="none" xmlns="http://www.w3.org/2000/svg">
  <defs>
    <linearGradient id="faviconGradient" x1="0%" y1="0%" x2="100%" y2="100%">
      <stop offset="0%" stop-color="#667eea" stop-opacity="1"/>
      <stop offset="100%" stop-color="#764ba2" stop-opacity="1"/>
    </linearGradient>
  </defs>
  
  <!-- Main Circle Background -->
  <circle cx="16" cy="16" r="15" fill="url(#faviconGradient)"/>
  
  <!-- Letter "N" -->
  <path d="M8 10 L8 22 L10 22 L10 14 L14 22 L16 22 L16 10 L14 10 L14 18 L10 10 Z" 
        fill="white" 
        stroke="white" 
        stroke-width="0.25"/>
  
  <!-- Letter "C" -->
  <path d="M20 10 C22 10 24 12 24 16 C24 20 22 22 20 22 C19 22 18 21.5 17.5 20.5 L18.5 19.5 C18.75 20 19.25 20.5 20 20.5 C21 20.5 22.5 19 22.5 16 C22.5 13 21 11.5 20 11.5 C19.25 11.5 18.75 12 18.5 12.5 L17.5 11.5 C18 10.5 19 10 20 10 Z" 
        fill="white" 
        stroke="white" 
        stroke-width="0.25"/>
  
  <!-- Connection Line between N and C -->
  <line x1="16" y1="16" x2="17.5" y2="16" stroke="white" stroke-width="1" opacity="0.6"/>
  
  <!-- Small decorative dots -->
  <circle cx="16" cy="8" r="0.75" fill="white" opacity="0.8"/>
  <circle cx="16" cy="24" r="0.75" fill="white" opacity="0.8"/>
</svg>